<svg xmlns="http://www.w3.org/2000/svg" width="60" height="35.985" viewBox="0 0 60 35.985">
  <path id="Icon_ionic-ios-laptop" data-name="Icon ionic-ios-laptop" d="M55.108,39.8V10.012a2.163,2.163,0,0,0-2.149-2.137H9.277a2.154,2.154,0,0,0-2.149,2.137V39.8H1.118c0,1.237,1.237,2.349,2.362,2.836A16.578,16.578,0,0,0,9.627,43.86H52.609a16.55,16.55,0,0,0,6.035-1.1c1.187-.5,2.474-1.674,2.474-2.961h-6.01ZM31.118,8.875a.5.5,0,1,1-.5.5A.5.5,0,0,1,31.118,8.875ZM9.377,10.9H52.859a.251.251,0,0,1,.25.25v26.4a.251.251,0,0,1-.25.25H9.377a.251.251,0,0,1-.25-.25v-26.4A.243.243,0,0,1,9.377,10.9ZM36.4,40.8H25.833a1.489,1.489,0,0,1-1.212-.937H37.615A1.241,1.241,0,0,1,36.4,40.8Z" transform="translate(-1.118 -7.875)" fill="#fff"/>
</svg>
