<svg xmlns="http://www.w3.org/2000/svg" width="60" height="60" viewBox="0 0 60 60"><path d="M0,29.76A28.832,28.832,0,0,1,2.4,18.12,29.009,29.009,0,0,1,18.337,2.22a29.54,29.54,0,0,1,23.327,0A29.26,29.26,0,0,1,57.6,18.12a29.373,29.373,0,0,1,0,23.28A29.476,29.476,0,0,1,41.663,57.42a29.54,29.54,0,0,1-23.327,0A29.22,29.22,0,0,1,2.4,41.4,28.832,28.832,0,0,1,0,29.76Zm4.689,0a24.374,24.374,0,0,0,5.05,15.12,27.025,27.025,0,0,0,13.046,9.3v-4.8a5.836,5.836,0,0,1,2.4-5.22,17.29,17.29,0,0,1-2.826-.42,14.223,14.223,0,0,1-5.23-1.92q-5.471-3.3-5.471-11.94a10.777,10.777,0,0,1,3.006-7.68,10.075,10.075,0,0,1,.3-7.68h1.2a4.954,4.954,0,0,1,1.5.3,20.689,20.689,0,0,1,5.23,2.64,28.412,28.412,0,0,1,7.214-.96,29.108,29.108,0,0,1,7.275.96,25.63,25.63,0,0,1,4.389-2.4,6.528,6.528,0,0,1,2.766-.6l.721.06a10.459,10.459,0,0,1,.3,7.68,10.777,10.777,0,0,1,3.006,7.68q0,6.72-3.307,10.14a12.092,12.092,0,0,1-4.749,3,20.71,20.71,0,0,1-5.471,1.14,5.968,5.968,0,0,1,2.465,5.22v4.8a27.225,27.225,0,0,0,12.806-9.42,24.419,24.419,0,0,0,4.93-15,25.243,25.243,0,0,0-1.984-9.84A24.781,24.781,0,0,0,39.8,6.54,24.881,24.881,0,0,0,30,4.5a25.612,25.612,0,0,0-9.86,2.04,26.438,26.438,0,0,0-8.056,5.34,27.829,27.829,0,0,0-5.411,8.04,25.243,25.243,0,0,0-1.984,9.84Z" transform="translate(0 0.18)" fill="#fff"/></svg>